<svg xmlns="http://www.w3.org/2000/svg" viewBox="0 0 100 100" width="1024" height="1024">
  <rect width="100" height="100" fill="#111115" />

  <defs>
    <linearGradient id="LovelyGradient" x1="0%" y1="0%" x2="100%" y2="100%">
      <stop offset="0%" stop-color="#21d4fd" />
      <stop offset="35%" stop-color="#b721ff" />
      <stop offset="65%" stop-color="#ff1a92" />
      <stop offset="100%" stop-color="#ffd700" />
    </linearGradient>
  </defs>
  
  <path d="M20,10 H10 V20" stroke-width="4" stroke="url(#LovelyGradient)" fill="none" rx="2"/>
  <path d="M80,10 H90 V20" stroke-width="4" stroke="url(#LovelyGradient)" fill="none" rx="2"/>
  <path d="M20,90 H10 V80" stroke-width="4" stroke="url(#LovelyGradient)" fill="none" rx="2"/>
  <path d="M80,90 H90 V80" stroke-width="4" stroke="url(#LovelyGradient)" fill="none" rx="2"/>

  <g transform="translate(20, 20) scale(0.6)" fill="url(#LovelyGradient)">
    <path d="M50,0 C65.5,0,78.2,12.7,78.2,28.2 C78.2,38.5,72.6,47.7,64.1,52.8 L64.1,72.3 C64.1,76.5,60.7,80,56.5,80 L43.5,80 C39.3,80,35.9,76.5,35.9,72.3 L35.9,52.8 C27.4,47.7,21.8,38.5,21.8,28.2 C21.8,12.7,34.5,0,50,0 M50,11.3 C40.7,11.3,33.1,18.9,33.1,28.2 C33.1,34.1,36.2,39.3,40.7,42.4 C42.1,43.3,42.9,44.9,42.9,46.5 L42.9,68.7 L57.1,68.7 L57.1,46.5 C57.1,44.9,57.9,43.3,59.3,42.4 C63.8,39.3,66.9,34.1,66.9,28.2 C66.9,18.9,59.3,11.3,50,11.3"/>
    <circle cx="50" cy="28.2" r="14.1" fill="none" stroke-width="4" stroke="url(#LovelyGradient)"/>
    <path d="M50,28.2 L35.9,28.2" stroke-width="4" stroke="url(#LovelyGradient)"/>
    <path d="M50,28.2 L50,42.3" stroke-width="4" stroke="url(#LovelyGradient)"/>
    
    <g transform="translate(68, 68) scale(0.18)" fill="#00FF7F">
      <path d="M50,0 C65,0,80,15,80,30 C80,45,65,60,50,60 C35,60,20,45,20,30 C20,15,35,0,50,0"/>
      <path d="M50,40 C65,40,80,55,80,70 C80,85,65,100,50,100 C35,100,20,85,20,70 C20,55,35,40,50,40"/>
      <path d="M0,50 C0,35,15,20,30,20 C45,20,60,35,60,50 C60,65,45,80,30,80 C15,80,0,65,0,50"/>
      <path d="M45,80 V100" stroke-width="6" stroke="#00FF7F"/>
    </g>
  </g>
</svg>
